<svg version="1.1" viewBox="0.0 0.0 1000.0 600.0" fill="none" stroke="none" stroke-linecap="square" stroke-miterlimit="10" xmlns:xlink="http://www.w3.org/1999/xlink" xmlns="http://www.w3.org/2000/svg"><clipPath id="p.0"><path d="m0 0l1000.0 0l0 600.0l-1000.0 0l0 -600.0z" clip-rule="nonzero"/></clipPath><g clip-path="url(#p.0)"><path fill="#000000" fill-opacity="0.0" d="m0 0l1000.0 0l0 600.0l-1000.0 0z" fill-rule="evenodd"/><path fill="#999999" d="m2.6082678 -4.1732283l1000.0 0l0 600.0l-1000.0 0z" fill-rule="evenodd"/><path stroke="#000000" stroke-width="1.0" stroke-linejoin="round" stroke-linecap="butt" d="m2.6082678 -4.1732283l1000.0 0l0 600.0l-1000.0 0z" fill-rule="evenodd"/><path fill="#434343" d="m10.609016 -7.999725l296.8819 0l0 24.0l-296.8819 0z" fill-rule="evenodd"/><path fill="#434343" d="m354.609 -7.999725l296.8819 0l0 24.0l-296.8819 0z" fill-rule="evenodd"/><path fill="#434343" d="m698.609 -7.999725l296.8819 0l0 24.0l-296.8819 0z" fill-rule="evenodd"/><path fill="#434343" d="m981.91345 23.997625l29.57483 0l0 230.96063l-29.57483 0z" fill-rule="evenodd"/><path fill="#434343" d="m981.91345 311.99762l29.57483 0l0 230.96063l-29.57483 0z" fill-rule="evenodd"/><path fill="#434343" d="m6.958089 339.8244l29.574802 0l0 230.96063l-29.574802 0z" fill-rule="evenodd"/><path fill="#434343" d="m-1.041911 35.824398l29.574802 0l0 230.96063l-29.574802 0z" fill-rule="evenodd"/><path fill="#434343" d="m10.609016 576.0003l296.8819 0l0 24.0l-296.8819 0z" fill-rule="evenodd"/><path fill="#434343" d="m354.609 576.0003l296.8819 0l0 24.0l-296.8819 0z" fill-rule="evenodd"/><path fill="#434343" d="m698.609 576.0003l296.8819 0l0 24.0l-296.8819 0z" fill-rule="evenodd"/><path fill="#b8b8b8" d="m144.76122 151.14688l108.0 0l0 32.692917l-108.0 0z" fill-rule="evenodd"/><path fill="#b8b8b8" d="m262.48825 151.24603l108.0 0l0 32.692917l-108.0 0z" fill-rule="evenodd"/><path fill="#b8b8b8" d="m199.49088 196.87596l108.0 0l0 32.692917l-108.0 0z" fill-rule="evenodd"/><path fill="#b8b8b8" d="m323.8872 196.87596l108.0 0l0 32.692917l-108.0 0z" fill-rule="evenodd"/><path fill="#b8b8b8" d="m76.01187 196.87596l108.0 0l0 32.692917l-108.0 0z" fill-rule="evenodd"/><path fill="#b8b8b8" d="m147.27808 240.23164l108.0 0l0 32.692917l-108.0 0z" fill-rule="evenodd"/><path fill="#b8b8b8" d="m265.00513 240.33081l108.0 0l0 32.6929l-108.0 0z" fill-rule="evenodd"/><path fill="#8d8d8d" d="m684.63525 417.31485l108.0 0l0 32.692932l-108.0 0z" fill-rule="evenodd"/><path fill="#8d8d8d" d="m802.36224 417.41403l108.0 0l0 32.6929l-108.0 0z" fill-rule="evenodd"/><path fill="#8d8d8d" d="m739.36487 463.04395l108.0 0l0 32.6929l-108.0 0z" fill-rule="evenodd"/><path fill="#8d8d8d" d="m863.7612 463.04395l108.0 0l0 32.6929l-108.0 0z" fill-rule="evenodd"/><path fill="#8d8d8d" d="m615.88586 463.04395l108.0 0l0 32.6929l-108.0 0z" fill-rule="evenodd"/><path fill="#8d8d8d" d="m687.1521 506.39963l108.0 0l0 32.6929l-108.0 0z" fill-rule="evenodd"/><path fill="#8d8d8d" d="m804.87915 506.49878l108.0 0l0 32.692932l-108.0 0z" fill-rule="evenodd"/><path fill="#000000" fill-opacity="0.0" d="m616.63416 172.46063l-67.96002 -7.3314514l10.102539 -48.584274l-58.776672 -11.914642" fill-rule="evenodd"/><path stroke="#000000" stroke-width="1.0" stroke-linejoin="round" stroke-linecap="butt" d="m616.63416 172.46063l-67.96002 -7.3314514l10.102539 -48.584274l-58.776672 -11.914642" fill-rule="evenodd"/><path fill="#000000" fill-opacity="0.0" d="m616.6332 173.3762l-17.4516 42.166153l-56.938354 9.166382" fill-rule="evenodd"/><path stroke="#000000" stroke-width="1.0" stroke-linejoin="round" stroke-linecap="butt" d="m616.6332 173.3762l-17.4516 42.166153l-56.938354 9.166382" fill-rule="evenodd"/><path fill="#000000" fill-opacity="0.0" d="m612.96124 173.3762l-27.554138 21.085129l-42.24414 -6.418106l-25.711731 11.918762" fill-rule="evenodd"/><path stroke="#000000" stroke-width="1.0" stroke-linejoin="round" stroke-linecap="butt" d="m612.96124 173.3762l-27.554138 21.085129l-42.24414 -6.418106l-25.711731 11.918762" fill-rule="evenodd"/><path fill="#000000" fill-opacity="0.0" d="m582.6532 219.21124l-41.325012 -11.001297" fill-rule="evenodd"/><path stroke="#000000" stroke-width="1.0" stroke-linejoin="round" stroke-linecap="butt" d="m582.6532 219.21124l-41.325012 -11.001297" fill-rule="evenodd"/><path fill="#000000" fill-opacity="0.0" d="m589.99713 168.79474l26.63501 -43.99698l-13.775024 -13.753677" fill-rule="evenodd"/><path stroke="#000000" stroke-width="1.0" stroke-linejoin="round" stroke-linecap="butt" d="m589.99713 168.79474l26.63501 -43.99698l-13.775024 -13.753677" fill-rule="evenodd"/><path fill="#000000" fill-opacity="0.0" d="m617.55066 167.8757l57.853394 66.00368l72.551636 10.079727" fill-rule="evenodd"/><path stroke="#000000" stroke-width="1.0" stroke-linejoin="round" stroke-linecap="butt" d="m617.55066 167.8757l57.853394 66.00368l72.551636 10.079727" fill-rule="evenodd"/><path fill="#000000" fill-opacity="0.0" d="m654.2832 204.5445l42.24414 -6.418106" fill-rule="evenodd"/><path stroke="#000000" stroke-width="1.0" stroke-linejoin="round" stroke-linecap="butt" d="m654.2832 204.5445l42.24414 -6.418106" fill-rule="evenodd"/><path fill="#000000" fill-opacity="0.0" d="m657.03754 215.5412l-11.017517 39.417892l-37.652466 0" fill-rule="evenodd"/><path stroke="#000000" stroke-width="1.0" stroke-linejoin="round" stroke-linecap="butt" d="m657.03754 215.5412l-11.017517 39.417892l-37.652466 0" fill-rule="evenodd"/><path fill="#000000" fill-opacity="0.0" d="m652.4449 234.79088l21.124146 18.336884" fill-rule="evenodd"/><path stroke="#000000" stroke-width="1.0" stroke-linejoin="round" stroke-linecap="butt" d="m652.4449 234.79088l21.124146 18.336884" fill-rule="evenodd"/><path fill="#000000" fill-opacity="0.0" d="m616.63153 169.71202l36.733337 -52.250008l86.32666 38.500435l-60.61084 13.749573" fill-rule="evenodd"/><path stroke="#000000" stroke-width="1.0" stroke-linejoin="round" stroke-linecap="butt" d="m616.63153 169.71202l36.733337 -52.250008l86.32666 38.500435l-60.61084 13.749573" fill-rule="evenodd"/><path fill="#000000" fill-opacity="0.0" d="m685.5054 131.2112l0.9191284 28.416595l-16.52832 0" fill-rule="evenodd"/><path stroke="#000000" stroke-width="1.0" stroke-linejoin="round" stroke-linecap="butt" d="m685.5054 131.2112l0.9191284 28.416595l-16.52832 0" fill-rule="evenodd"/><path fill="#000000" fill-opacity="0.0" d="m670.8112 123.88101l-2.753357 -38.500435" fill-rule="evenodd"/><path stroke="#000000" stroke-width="1.0" stroke-linejoin="round" stroke-linecap="butt" d="m670.8112 123.88101l-2.753357 -38.500435" fill-rule="evenodd"/></g></svg>