<svg version="1.1" viewBox="0.0 0.0 1048.244094488189 326.25984251968504" fill="none" stroke="none" stroke-linecap="square" stroke-miterlimit="10" xmlns:xlink="http://www.w3.org/1999/xlink" xmlns="http://www.w3.org/2000/svg"><clipPath id="p.0"><path d="m0 0l1048.2441 0l0 326.25986l-1048.2441 0l0 -326.25986z" clip-rule="nonzero"/></clipPath><g clip-path="url(#p.0)"><path fill="#000000" fill-opacity="0.0" d="m0 0l1048.2441 0l0 326.25986l-1048.2441 0z" fill-rule="evenodd"/><path fill="#666666" d="m-0.33070865 14.650919l1035.9055 0l0 301.48032l-1035.9055 0z" fill-rule="evenodd"/><path stroke="#cccccc" stroke-width="24.0" stroke-linejoin="round" stroke-linecap="butt" d="m-0.33070865 14.650919l1035.9055 0l0 301.48032l-1035.9055 0z" fill-rule="evenodd"/><path fill="#434343" d="m34.98679 32.240135l471.46457 0l0 124.78741l-471.46457 0z" fill-rule="evenodd"/><path fill="#434343" d="m529.55396 32.240135l465.95276 0l0 124.78741l-465.95276 0z" fill-rule="evenodd"/><path fill="#434343" d="m266.62964 167.92053l471.46454 0l0 124.787384l-471.46454 0z" fill-rule="evenodd"/><path fill="#434343" d="m761.1968 167.92097l234.2992 0l0 124.7874l-234.2992 0z" fill-rule="evenodd"/><path fill="#434343" d="m34.986794 167.92097l207.68503 0l0 124.7874l-207.68503 0z" fill-rule="evenodd"/><path fill="#000000" fill-opacity="0.0" d="m-1.1128609 68.10644l1035.9055 0l0 260.37793l-1035.9055 0z" fill-rule="evenodd"/><path fill="#d9d9d9" d="m268.14655 152.25081l0 16.171875l-23.28125 0l0 -16.171875l23.28125 0zm-41.390625 -34.015617l22.25 0l0 83.03124l-22.25 0l0 -83.03124zm38.546875 0l22.234375 0l0 83.03124l-22.234375 0l0 -83.03124zm63.489777 53.156242l0 -16.546875q0 -1.421875 -0.78125 -2.140625q-0.765625 -0.71875 -2.453125 -0.71875l-1.9375 0l0 -15.25l8.40625 0q10.34375 0 14.359375 4.40625q4.015625 4.390625 4.015625 11.625l0 18.625l-21.609375 0zm0 11.765625l0 -13.453125l21.609375 0l0 15.53125q0 7.234375 -4.015625 11.640625q-4.015625 4.390625 -14.359375 4.390625l-8.40625 0l0 -15.265625l1.9375 0q1.6875 0 2.453125 -0.703125q0.78125 -0.71875 0.78125 -2.140625zm-9.953125 -28.3125l0 16.546875l-21.59375 0l0 -18.625q0 -7.234375 4.0 -11.625q4.015625 -4.40625 14.359375 -4.40625l8.40625 0l0 15.25l-1.9375 0q-1.6875 0 -2.46875 0.71875q-0.765625 0.71875 -0.765625 2.140625zm0 14.859375l0 13.453125q0 1.421875 0.765625 2.140625q0.78125 0.703125 2.46875 0.703125l1.9375 0l0 15.265625l-8.40625 0q-10.34375 0 -14.359375 -4.390625q-4.0 -4.40625 -4.0 -11.640625l0 -15.53125l21.59375 0zm103.06613 -32.96875l20.1875 0l-13.84375 64.53125l-21.859375 0l-7.890625 -38.015625l-8.015625 38.015625l-21.859375 0l-13.0625 -64.53125l20.4375 0l4.78125 40.734375l8.40625 -40.734375l19.28125 0l7.5 40.46875l5.9375 -40.46875zm76.44495 -12.671867l0 58.187492q0 1.421875 0.765625 2.140625q0.78125 0.703125 2.46875 0.703125l4.78125 0l0 16.171875l-11.0 0q-10.34375 0 -14.671875 -4.390625q-4.328125 -4.40625 -4.328125 -11.640625l0 -61.171867l21.984375 0zm8.140625 12.671867l0 16.15625l-37.25 0l0 -16.15625l37.25 0zm37.3739 34.65625l0 -16.546875q0 -1.421875 -0.78125 -2.140625q-0.765625 -0.71875 -2.453125 -0.71875l-1.9375 0l0 -15.25l8.40625 0q10.34375 0 14.359375 4.40625q4.015625 4.390625 4.015625 11.625l0 18.625l-21.609375 0zm0 11.765625l0 -13.453125l21.609375 0l0 15.53125q0 7.234375 -4.015625 11.640625q-4.015625 4.390625 -14.359375 4.390625l-8.40625 0l0 -15.265625l1.9375 0q1.6875 0 2.453125 -0.703125q0.78125 -0.71875 0.78125 -2.140625zm-9.953125 -28.3125l0 16.546875l-21.59375 0l0 -18.625q0 -7.234375 4.0 -11.625q4.015625 -4.40625 14.359375 -4.40625l8.40625 0l0 15.25l-1.9375 0q-1.6875 0 -2.46875 0.71875q-0.765625 0.71875 -0.765625 2.140625zm0 14.859375l0 13.453125q0 1.421875 0.765625 2.140625q0.78125 0.703125 2.46875 0.703125l1.9375 0l0 15.265625l-8.40625 0q-10.34375 0 -14.359375 -4.390625q-4.0 -4.40625 -4.0 -11.640625l0 -15.53125l21.59375 0zm120.00989 0.53125l-21.984375 0l0 -14.5q0 -1.421875 -0.78125 -2.125q-0.765625 -0.71875 -2.453125 -0.71875l-2.1875 0q-1.6875 0 -2.59375 0.90625q-0.90625 0.90625 -0.90625 2.984375l0 3.484375l-0.765625 0l0 -11.640625q0 -5.421875 3.03125 -8.65625q3.046875 -3.234375 9.125 -3.234375l2.328125 0q9.171875 0 13.171875 4.40625q4.015625 4.390625 4.015625 11.625l0 17.46875zm-30.90625 47.71875l-21.984375 0l0 -81.21875l21.59375 0l0 12.28125l0.390625 0l0 68.9375zm8.921875 -50.1875l21.984375 0l0 17.46875q0 7.234375 -4.015625 11.640625q-4.0 4.390625 -13.171875 4.390625l-2.328125 0q-6.078125 0 -9.125 -3.234375q-3.03125 -3.234375 -3.03125 -8.65625l0 -11.640625l0.765625 0l0 3.484375q0 2.0625 0.90625 2.96875q0.90625 0.90625 2.59375 0.90625l2.1875 0q1.6875 0 2.453125 -0.703125q0.78125 -0.71875 0.78125 -2.140625l0 -14.484375zm53.026245 33.5l-21.984375 0l0 -86.51562l21.984375 0l0 86.51562zm31.035156 -31.03125l-21.984375 0l0 -17.46875q0 -7.234375 4.0 -11.625q4.015625 -4.40625 13.203125 -4.40625l2.328125 0q6.078125 0 9.109375 3.234375q3.046875 3.234375 3.046875 8.65625l0 11.640625l-0.765625 0l0 -3.484375q0 -2.078125 -0.84375 -2.984375q-0.84375 -0.90625 -2.65625 -0.90625l-2.203125 0q-1.671875 0 -2.453125 0.71875q-0.78125 0.703125 -0.78125 2.125l0 14.5zm30.921875 31.03125l-21.984375 0l0 -52.25l0.375 0l0 -12.28125l21.609375 0l0 64.53125zm-52.90625 -33.5l21.984375 0l0 14.484375q0 1.421875 0.78125 2.140625q0.78125 0.703125 2.453125 0.703125l2.203125 0q1.8125 0 2.65625 -0.90625q0.84375 -0.90625 0.84375 -2.96875l0 -3.484375l0.765625 0l0 11.640625q0 5.421875 -3.046875 8.65625q-3.03125 3.234375 -9.109375 3.234375l-2.328125 0q-9.1875 0 -13.203125 -4.390625q-4.0 -4.40625 -4.0 -11.640625l0 -17.46875zm58.07312 -31.03125l23.015625 0l7.890625 39.3125l6.984375 -39.3125l22.125 0l-16.171875 63.234375q-2.453125 8.40625 -7.890625 13.1875q-5.4375 4.796875 -16.546875 4.796875l-10.875 0l0 -15.90625l9.578125 0q2.84375 0 4.78125 -0.96875q1.9375 -0.96875 2.96875 -4.203125l0.265625 -0.78125l-8.40625 0l-17.71875 -59.359375z" fill-rule="nonzero"/><path fill="#2a2a2a" d="m57.516525 77.612564l140.94489 84.0l-140.94489 84.0z" fill-rule="evenodd"/><path fill="#2a2a2a" d="m980.1073 251.54066l-140.94489 -84.0l140.94489 -83.99999z" fill-rule="evenodd"/></g></svg>